<svg width="17" height="17" viewBox="0 0 17 17" fill="none" xmlns="http://www.w3.org/2000/svg">
<path d="M9.13704 8.49745L13.9208 3.70897C14.0052 3.62416 14.0526 3.50936 14.0525 3.38971C14.0524 3.27006 14.0049 3.15532 13.9204 3.07062C13.7513 2.90232 13.4533 2.90147 13.2825 3.07147L8.49996 7.85995L3.71574 3.0702C3.54574 2.90232 3.24781 2.90317 3.07866 3.07105C3.03668 3.11286 3.00344 3.16262 2.98089 3.21742C2.95835 3.27222 2.94694 3.33097 2.94734 3.39022C2.94734 3.51092 2.99409 3.62397 3.07866 3.7077L7.86246 8.49702L3.07909 13.2868C2.99468 13.3717 2.9474 13.4867 2.94764 13.6064C2.94788 13.7262 2.99561 13.8409 3.08036 13.9255C3.16239 14.0067 3.27841 14.0535 3.39826 14.0535H3.40081C3.52109 14.053 3.63711 14.0059 3.71744 13.9238L8.49996 9.13537L13.2842 13.9251C13.3688 14.0093 13.4818 14.056 13.6017 14.056C13.6609 14.0562 13.7196 14.0446 13.7744 14.022C13.8292 13.9994 13.879 13.9662 13.9209 13.9243C13.9628 13.8824 13.996 13.8326 14.0186 13.7779C14.0412 13.7231 14.0528 13.6644 14.0526 13.6051C14.0526 13.4848 14.0058 13.3713 13.9208 13.2876L9.13704 8.49745Z" fill="#333333"/>
</svg>
