<svg width="24" height="25" viewBox="0 0 24 25" fill="none" xmlns="http://www.w3.org/2000/svg">
<path d="M2 12.2523C2 17.6721 6.477 22.0654 12 22.0654C17.523 22.0654 22 17.6721 22 12.2523C22 6.83256 17.523 2.43924 12 2.43924C6.477 2.43924 2 6.83256 2 12.2523Z" stroke="black" stroke-width="1.5" stroke-linecap="round" stroke-linejoin="round"/>
<path d="M13 2.48831C13 2.48831 16 6.36448 16 12.2523C16 18.1402 13 22.0163 13 22.0163" stroke="black" stroke-width="1.5" stroke-linecap="round" stroke-linejoin="round"/>
<path d="M11 22.0163C11 22.0163 8 18.1402 8 12.2523C8 6.36448 11 2.48831 11 2.48831" stroke="black" stroke-width="1.5" stroke-linecap="round" stroke-linejoin="round"/>
<path d="M2.63 15.6869H21.37" stroke="black" stroke-width="1.5" stroke-linecap="round" stroke-linejoin="round"/>
<path d="M2.63 8.81775H21.37" stroke="black" stroke-width="1.5" stroke-linecap="round" stroke-linejoin="round"/>
</svg>
