<svg width="19" height="19" viewBox="0 0 19 19" fill="none" xmlns="http://www.w3.org/2000/svg">
<path d="M9.5 2.375C6.46594 2.375 3.92884 4.25125 2.89453 6.90234L3.98941 7.34766C4.8545 5.13 6.95281 3.5625 9.5 3.5625C11.4237 3.5625 13.1421 4.50656 14.2132 5.9375H11.875V7.125H16.0312V2.96875H14.8438V4.80581C14.1786 4.04213 13.3574 3.42997 12.4356 3.01064C11.5138 2.59131 10.5127 2.37456 9.5 2.375ZM15.01 11.6523C14.1455 13.87 12.0472 15.4375 9.5 15.4375C7.55487 15.4375 5.84428 14.4804 4.76781 13.0625H7.125V11.875H2.96875V16.0313H4.15625V14.1942C5.45656 15.6667 7.35953 16.625 9.5 16.625C12.5341 16.625 15.0712 14.7488 16.1055 12.0977L15.0106 11.6523H15.01Z" fill="#333333"/>
</svg>
