<svg width="13" height="13" viewBox="0 0 13 13" fill="none" xmlns="http://www.w3.org/2000/svg">
<g clip-path="url(#clip0_5602_3154)">
<path fill-rule="evenodd" clip-rule="evenodd" d="M12.8513 0.0918519C12.8978 0.129987 12.9353 0.177976 12.961 0.232353C12.9867 0.28673 13 0.346139 13 0.406289V11.7813C12.9999 11.8752 12.9674 11.9661 12.9078 12.0387C12.8483 12.1113 12.7654 12.161 12.6734 12.1794L8.61087 12.9919C8.55831 13.0024 8.50419 13.0024 8.45163 12.9919L4.46875 12.1957L0.485875 12.9919C0.42696 13.0037 0.366166 13.0023 0.307873 12.9877C0.24958 12.9732 0.19524 12.9459 0.148768 12.9078C0.102296 12.8697 0.0648484 12.8218 0.0391233 12.7675C0.0133983 12.7132 3.62803e-05 12.6539 0 12.5938L0 1.21879C5.66979e-05 1.12491 0.0326268 1.03394 0.0921728 0.961363C0.151719 0.888782 0.234565 0.839065 0.326625 0.820664L4.38912 0.00816438C4.44169 -0.00234184 4.49581 -0.00234184 4.54838 0.00816438L8.53125 0.804414L12.5141 0.00816438C12.573 -0.00368527 12.6338 -0.00232554 12.6921 0.0121456C12.7504 0.0266168 12.8048 0.0538392 12.8513 0.0918519ZM8.125 1.55191L4.875 0.901914V11.4482L8.125 12.0982V1.55191ZM8.9375 12.0982L12.1875 11.4482V0.901914L8.9375 1.55191V12.0982ZM4.0625 11.4482V0.901914L0.8125 1.55191V12.0982L4.0625 11.4482Z" fill="#333333"/>
</g>
<defs>
<clipPath id="clip0_5602_3154">
<rect width="13" height="13" fill="white"/>
</clipPath>
</defs>
</svg>
