<svg width="162" height="42" viewBox="0 0 162 42" fill="none" xmlns="http://www.w3.org/2000/svg">
<path d="M65.5749 14.9738V17.5688H59.3349V14.9738H65.5749ZM57.5049 19.8788H59.3349V19.2788H65.5749V19.8638H67.4949V13.2788H57.5049V19.8788ZM64.0299 8.43377C64.4949 8.83878 64.9899 9.28878 65.4699 9.76878C63.7449 9.84378 62.0049 9.91878 60.3849 9.97878C61.1049 8.88378 61.8549 7.62378 62.4849 6.43877L60.4299 5.77878C59.9199 7.09878 59.0649 8.74878 58.2249 10.0538C57.3849 10.0688 56.6049 10.0988 55.9149 10.1138L56.0199 11.9138C58.8099 11.8088 62.9949 11.6438 66.9549 11.4338C67.3599 11.9288 67.6899 12.3938 67.9149 12.7988L69.4599 11.6138C68.6949 10.3238 66.9099 8.59878 65.4249 7.38378L64.0299 8.43377ZM80.2449 6.13877H77.6349V6.99377H80.2449V6.13877ZM73.8849 7.57878C73.4349 7.09878 72.4599 6.46878 71.7249 6.06378L70.7049 7.27878C71.4549 7.72878 72.3849 8.41878 72.8049 8.91378L73.8849 7.57878ZM73.5999 11.4038C73.1049 10.9388 72.1299 10.3538 71.3649 9.99378L70.3899 11.2388C71.1399 11.6438 72.1149 12.3038 72.5499 12.7688L73.5999 11.4038ZM72.3099 19.7138C72.9099 18.2588 73.5249 16.5188 74.0049 14.9138L72.5949 14.0138C72.0399 15.7688 71.2749 17.6588 70.7349 18.8288L72.3099 19.7138ZM79.2999 12.5138H78.5499V11.8538H79.2999V12.5138ZM75.0399 13.4438H76.1649V10.4588L76.6299 10.4138C76.6599 10.5638 76.6749 10.6988 76.6899 10.8188L77.4999 10.5188C77.4399 10.0538 77.2299 9.33377 76.9749 8.79377L76.2249 9.06377C76.2699 9.18378 76.3149 9.31878 76.3599 9.45378L75.7149 9.46878C76.1799 8.94378 76.6599 8.32878 77.0949 7.75877V8.29877H80.6799V8.13378C81.0249 8.43377 81.3549 8.79377 81.5799 9.09378C81.4449 9.24378 81.3099 9.40877 81.1899 9.54377L80.4849 9.55877L80.5899 10.6388L81.8799 10.5638V11.1188L80.9049 10.8938C80.7849 11.4488 80.6199 12.0488 80.3799 12.5438V11.0588H77.5149V13.3088H80.3799V12.8138C80.6499 12.9338 81.0099 13.1288 81.1899 13.2638C81.4449 12.7838 81.7149 12.0638 81.8799 11.3888V13.4438H83.0199V10.5038L83.6049 10.4588C83.6349 10.5938 83.6649 10.7138 83.6799 10.8188L84.5799 10.4288C84.4749 9.93378 84.1899 9.19877 83.8899 8.65877L83.0349 9.00377C83.1099 9.15378 83.1849 9.31878 83.2599 9.48377L82.4349 9.49878C82.9749 8.91378 83.5449 8.22377 84.0399 7.60877L83.0499 7.05377C82.8549 7.39877 82.5849 7.78878 82.2849 8.19378C82.1949 8.08877 82.0899 7.96878 81.9699 7.86378C82.2849 7.42878 82.6299 6.87378 82.9749 6.36377L81.9549 5.86877C81.7899 6.24378 81.5199 6.78377 81.2649 7.24878L81.0699 7.09878L80.6799 7.62378V7.36878H77.0949V7.62378L76.1949 7.11377C76.0299 7.41377 75.8049 7.74377 75.5649 8.10377C75.4749 7.99878 75.3549 7.90878 75.2499 7.80378C75.5349 7.36878 75.8649 6.84377 76.1799 6.33378L75.1749 5.82378C75.0099 6.22877 74.7549 6.76877 74.4999 7.21878C74.4249 7.17378 74.3349 7.11377 74.2599 7.06878L73.7049 7.93878C74.1099 8.23877 74.5599 8.64377 74.8899 9.00377C74.7549 9.18378 74.6049 9.36378 74.4699 9.52878L73.5549 9.55877L73.6749 10.6388C74.0949 10.6088 74.5599 10.5788 75.0399 10.5338V11.1188L74.0499 10.8938C73.9149 11.5688 73.7049 12.2888 73.3599 12.8288C73.6299 12.9338 74.0799 13.1588 74.3049 13.2938C74.5899 12.7988 74.8599 12.0638 75.0399 11.3888V13.4438ZM83.0649 11.1638C83.3199 11.7788 83.5899 12.5738 83.6799 13.0988L84.6249 12.7838C84.5049 12.2738 84.2199 11.4938 83.9649 10.8938L83.0649 11.1638ZM77.5299 10.6538H80.3799V9.84378H77.5299V10.6538ZM80.3799 8.68878H77.5299V9.49878H80.3799V8.68878ZM77.4699 12.5288C77.3949 12.1088 77.2299 11.4488 77.0649 10.9538L76.2099 11.1488C76.3599 11.6738 76.5099 12.3488 76.5699 12.7838L77.4699 12.5288ZM76.4199 16.6538L76.5399 16.1888H83.1849V13.6988H74.6799V14.7038H81.5349V15.1688H75.1299C74.9499 16.0988 74.6649 17.2088 74.3949 17.9738L75.9999 18.1838C76.0449 18.0488 76.0899 17.8988 76.1349 17.7488H82.0449C81.9099 18.1688 81.7749 18.4088 81.6099 18.5288C81.4599 18.6338 81.2799 18.6488 80.9799 18.6488C80.6049 18.6488 79.6149 18.6338 78.7149 18.5438C78.9699 18.9188 79.1649 19.4588 79.1949 19.8488C80.1249 19.8788 81.0399 19.8938 81.5199 19.8788C82.1199 19.8488 82.5399 19.7738 82.9149 19.4888C83.3199 19.1588 83.5899 18.4988 83.8299 17.2988C83.8899 17.0888 83.9199 16.6538 83.9199 16.6538H76.4199ZM93.6549 6.97877C94.7499 9.03378 96.4749 11.4038 97.8849 12.9188C98.2299 12.4238 98.9199 11.7338 99.3849 11.3588C98.0199 10.0988 96.3099 7.99878 95.4399 6.24378L93.6549 6.97877ZM89.4399 6.21377C88.6599 8.29877 87.2499 10.3538 85.7049 11.5688C86.1699 11.8538 87.0549 12.5288 87.4149 12.9038C88.9449 11.4788 90.5199 9.15378 91.4799 6.79878L89.4399 6.21377ZM93.9099 14.6288C94.4649 15.3638 95.0649 16.2188 95.6049 17.0588C93.8649 17.1488 92.1099 17.2388 90.4899 17.3138C91.4049 15.6938 92.3799 13.6838 93.1599 11.8388L91.0149 11.3438C90.4449 13.2188 89.4099 15.6188 88.4499 17.4038L86.3649 17.4788L86.6049 19.3538C89.2449 19.2338 93.0249 19.0088 96.6249 18.7688C96.8799 19.2038 97.0899 19.6088 97.2399 19.9688L99.0999 18.9938C98.3649 17.5538 96.9549 15.4388 95.6499 13.8188L93.9099 14.6288ZM103.915 14.0438V13.1288H106.525V14.0438H103.915ZM103.915 10.8788H106.525V11.7938H103.915V10.8788ZM110.98 10.8788V11.7938H108.355V10.8788H110.98ZM110.98 14.0438H108.355V13.1288H110.98V14.0438ZM114.34 16.2788H108.355V15.4688H112.78V9.45378H108.355V8.73378H113.905V7.11377H108.355V5.89878H106.525V7.11377H101.08V8.73378H106.525V9.45378H102.205V15.4688H106.525V16.2788H100.72V17.8838H106.525V19.9088H108.355V17.8838H114.34V16.2788ZM123.441 10.2488C124.571 10.2488 125.466 10.5738 126.126 11.2238C126.786 11.8638 127.116 12.7788 127.116 13.9688V15.0488H121.836C121.856 15.6788 122.041 16.1738 122.391 16.5338C122.751 16.8938 123.246 17.0738 123.876 17.0738C124.406 17.0738 124.886 17.0238 125.316 16.9238C125.746 16.8138 126.191 16.6488 126.651 16.4288V18.1538C126.251 18.3538 125.826 18.4988 125.376 18.5888C124.936 18.6888 124.401 18.7388 123.771 18.7388C122.951 18.7388 122.226 18.5888 121.596 18.2888C120.966 17.9788 120.471 17.5138 120.111 16.8938C119.751 16.2738 119.571 15.4938 119.571 14.5538C119.571 13.5938 119.731 12.7988 120.051 12.1688C120.381 11.5288 120.836 11.0488 121.416 10.7288C121.996 10.4088 122.671 10.2488 123.441 10.2488ZM123.456 11.8388C123.026 11.8388 122.666 11.9788 122.376 12.2588C122.096 12.5388 121.931 12.9738 121.881 13.5638H125.016C125.006 13.0638 124.876 12.6538 124.626 12.3338C124.376 12.0038 123.986 11.8388 123.456 11.8388ZM134.01 8.26878C134.22 8.94378 134.37 9.78378 134.4 10.3538L135.195 10.1138C135.15 9.52878 134.955 8.64377 134.715 7.95377L134.01 8.16377V7.53377H135.27V10.7888H134.01V8.26878ZM137.64 8.19378L136.92 7.93878C136.815 8.53878 136.56 9.40877 136.35 10.0088V7.53377H137.64V8.19378ZM136.35 10.7888V10.1438L136.965 10.3688C137.16 9.93378 137.4 9.28878 137.64 8.65877V10.7888H136.35ZM132.39 16.2938C134.205 16.2188 136.77 16.0838 139.2 15.9338L139.23 14.5538C138.36 14.5838 137.46 14.6288 136.59 14.6588V13.9988H138.99V12.6488H136.59V11.9888H139.02V6.33378H132.675V11.9888H135.015V12.6488H132.705V13.9988H135.015V14.7188C134.01 14.7488 133.095 14.7788 132.345 14.7938L132.39 16.2938ZM133.17 19.8938C133.8 19.2038 134.055 18.0638 134.235 16.9988L133.035 16.6388C132.9 17.6288 132.555 18.6638 132.015 19.2938L133.17 19.8938ZM134.34 16.7288C134.505 17.5688 134.625 18.6488 134.595 19.3538L135.75 19.2188C135.735 18.4988 135.615 17.4338 135.435 16.5938L134.34 16.7288ZM135.84 16.6688C136.125 17.4638 136.38 18.4988 136.44 19.1738L137.55 18.9488C137.46 18.2588 137.19 17.2538 136.905 16.4588L135.84 16.6688ZM137.295 16.5338C137.76 17.2838 138.21 18.2738 138.39 18.9338L139.515 18.4688C139.32 17.8088 138.84 16.8488 138.36 16.1438L137.295 16.5338ZM143.94 17.6888H141.165V14.5538H143.94V17.6888ZM146.145 10.6238V8.97378H143.25V5.89878H141.51V12.9338H139.545V19.8788H141.165V19.2938H143.94V19.8188H145.65V12.9338H143.25V10.6238H146.145ZM155.475 10.9238V11.7338H153.75V10.9238H155.475ZM158.835 11.7338H157.065V10.9238H158.835V11.7338ZM157.065 13.8188V12.9788H158.835V13.8188H157.065ZM153.75 13.8188V12.9788H155.475V13.8188H153.75ZM153.75 15.1088H155.475V17.2988H157.065V15.1088H158.835V15.7988C158.835 15.9488 158.79 16.0088 158.61 16.0238C158.46 16.0238 157.935 16.0238 157.47 16.0088C157.665 16.3838 157.845 16.9688 157.905 17.4038C158.805 17.4038 159.45 17.4038 159.93 17.1488C160.41 16.9088 160.545 16.5338 160.545 15.8138V9.63378H158.73C158.475 9.48377 158.16 9.33377 157.83 9.16878C158.805 8.56877 159.75 7.84878 160.5 7.14378L159.435 6.28877L159.09 6.37878H152.205V7.72878H157.545C157.17 7.99878 156.765 8.28378 156.345 8.52378C155.73 8.25378 155.1 8.01377 154.575 7.81877L153.42 8.77877C154.035 9.01878 154.755 9.31878 155.43 9.63378H152.07V17.3588H153.75V15.1088ZM151.245 8.50877C150.705 7.78878 149.55 6.82878 148.635 6.19878L147.405 7.33877C148.32 8.02877 149.445 9.06377 149.91 9.78378L151.245 8.50877ZM150.795 11.7038H147.18V13.3388H149.085V16.6088C148.395 17.1188 147.63 17.6138 146.985 17.9738L147.81 19.7588C148.65 19.1288 149.355 18.5438 150.045 17.9588C150.945 19.1138 152.13 19.5488 153.93 19.6238C155.76 19.6988 158.94 19.6688 160.785 19.5788C160.86 19.0838 161.13 18.2588 161.34 17.8388C159.285 18.0038 155.73 18.0488 153.945 17.9738C152.415 17.9138 151.38 17.4938 150.795 16.4888V11.7038Z" fill="black"/>
<path d="M62.8671 27.2616H59.9432V35.1776H59.2225V27.2616H56.3046V26.6463H62.8671V27.2616ZM67.8998 35.1776C67.8295 34.9784 67.7846 34.6834 67.765 34.2928C67.5189 34.6131 67.2045 34.8612 66.8217 35.037C66.4428 35.2088 66.0404 35.2948 65.6146 35.2948C65.0053 35.2948 64.5111 35.1248 64.1322 34.785C63.7572 34.4452 63.5697 34.0155 63.5697 33.4959C63.5697 32.8788 63.8256 32.3905 64.3373 32.0311C64.8529 31.6717 65.5697 31.492 66.4877 31.492H67.7592V30.7713C67.7592 30.3182 67.6185 29.9627 67.3373 29.7049C67.06 29.4432 66.6537 29.3123 66.1185 29.3123C65.6303 29.3123 65.226 29.4373 64.9057 29.6873C64.5853 29.9373 64.4252 30.2381 64.4252 30.5897L63.7221 30.5838C63.7221 30.0799 63.9564 29.6444 64.4252 29.2772C64.8939 28.9061 65.4701 28.7206 66.1537 28.7206C66.8607 28.7206 67.4174 28.8983 67.8236 29.2538C68.2338 29.6053 68.4447 30.0975 68.4564 30.7303V33.7303C68.4564 34.3436 68.5209 34.8026 68.6498 35.1073V35.1776H67.8998ZM65.6967 34.6737C66.1654 34.6737 66.5834 34.5604 66.9506 34.3338C67.3217 34.1073 67.5912 33.8045 67.7592 33.4256V32.0311H66.5053C65.806 32.0389 65.2592 32.1678 64.8646 32.4178C64.4701 32.6639 64.2728 33.0038 64.2728 33.4373C64.2728 33.7928 64.4037 34.0877 64.6654 34.3221C64.931 34.5565 65.2748 34.6737 65.6967 34.6737ZM71.5966 35.1776H70.8935V28.8377H71.5966V35.1776ZM70.7704 27.0038C70.7704 26.8709 70.8134 26.7596 70.8993 26.6698C70.9853 26.576 71.1025 26.5291 71.2509 26.5291C71.3993 26.5291 71.5165 26.576 71.6025 26.6698C71.6923 26.7596 71.7372 26.8709 71.7372 27.0038C71.7372 27.1366 71.6923 27.2479 71.6025 27.3377C71.5165 27.4276 71.3993 27.4725 71.2509 27.4725C71.1025 27.4725 70.9853 27.4276 70.8993 27.3377C70.8134 27.2479 70.7704 27.1366 70.7704 27.0038ZM75.5043 33.7186L75.6098 34.2635L75.7504 33.6893L77.2739 28.8377H77.8715L79.3774 33.6483L79.5414 34.3163L79.6762 33.701L80.977 28.8377H81.7036L79.8578 35.1776H79.2602L77.6313 30.1502L77.5551 29.8045L77.4789 30.1561L75.8793 35.1776H75.2817L73.4418 28.8377H74.1625L75.5043 33.7186ZM87.5156 35.1776C87.4453 34.9784 87.4003 34.6834 87.3808 34.2928C87.1347 34.6131 86.8203 34.8612 86.4375 35.037C86.0585 35.2088 85.6562 35.2948 85.2304 35.2948C84.621 35.2948 84.1269 35.1248 83.748 34.785C83.373 34.4452 83.1855 34.0155 83.1855 33.4959C83.1855 32.8788 83.4414 32.3905 83.9531 32.0311C84.4687 31.6717 85.1855 31.492 86.1035 31.492H87.375V30.7713C87.375 30.3182 87.2343 29.9627 86.9531 29.7049C86.6757 29.4432 86.2695 29.3123 85.7343 29.3123C85.246 29.3123 84.8418 29.4373 84.5214 29.6873C84.2011 29.9373 84.041 30.2381 84.041 30.5897L83.3378 30.5838C83.3378 30.0799 83.5722 29.6444 84.041 29.2772C84.5097 28.9061 85.0859 28.7206 85.7695 28.7206C86.4765 28.7206 87.0332 28.8983 87.4394 29.2538C87.8496 29.6053 88.0605 30.0975 88.0722 30.7303V33.7303C88.0722 34.3436 88.1367 34.8026 88.2656 35.1073V35.1776H87.5156ZM85.3125 34.6737C85.7812 34.6737 86.1992 34.5604 86.5664 34.3338C86.9375 34.1073 87.207 33.8045 87.375 33.4256V32.0311H86.121C85.4218 32.0389 84.875 32.1678 84.4804 32.4178C84.0859 32.6639 83.8886 33.0038 83.8886 33.4373C83.8886 33.7928 84.0195 34.0877 84.2812 34.3221C84.5468 34.5565 84.8906 34.6737 85.3125 34.6737ZM91.0952 28.8377L91.1186 29.9217C91.3569 29.5311 91.6538 29.2342 92.0093 29.0311C92.3647 28.8241 92.7573 28.7206 93.187 28.7206C93.8667 28.7206 94.3725 28.912 94.7046 29.2948C95.0366 29.6776 95.2046 30.2518 95.2085 31.0174V35.1776H94.5112V31.0116C94.5073 30.4452 94.3862 30.0233 94.1479 29.7459C93.9136 29.4686 93.5366 29.3299 93.0171 29.3299C92.5835 29.3299 92.1987 29.4666 91.8628 29.7401C91.5307 30.0096 91.2846 30.3748 91.1245 30.8358V35.1776H90.4272V28.8377H91.0952ZM101.067 35.1776V26.6463H103.586C104.501 26.6463 105.194 26.8358 105.667 27.2147C106.139 27.5897 106.376 28.1444 106.376 28.8788C106.376 29.3202 106.254 29.7049 106.012 30.0331C105.774 30.3573 105.446 30.5897 105.028 30.7303C105.524 30.8397 105.922 31.0838 106.223 31.4627C106.528 31.8416 106.68 32.2791 106.68 32.7752C106.68 33.5291 106.436 34.119 105.948 34.5448C105.463 34.9666 104.788 35.1776 103.92 35.1776H101.067ZM101.788 31.076V34.5682H103.95C104.567 34.5682 105.055 34.412 105.415 34.0995C105.778 33.7831 105.959 33.3456 105.959 32.787C105.959 32.2596 105.786 31.8436 105.438 31.5389C105.094 31.2303 104.618 31.076 104.008 31.076H101.788ZM101.788 30.4725H103.756C104.358 30.4608 104.823 30.3202 105.151 30.0506C105.483 29.7772 105.649 29.3807 105.649 28.8612C105.649 28.3143 105.477 27.912 105.133 27.6541C104.793 27.3924 104.278 27.2616 103.586 27.2616H101.788V30.4725ZM112.82 34.3748C112.398 34.9881 111.725 35.2948 110.799 35.2948C110.123 35.2948 109.609 35.0995 109.258 34.7088C108.906 34.3143 108.727 33.7323 108.719 32.9627V28.8377H109.416V32.8748C109.416 34.0819 109.904 34.6854 110.881 34.6854C111.897 34.6854 112.539 34.2655 112.809 33.4256V28.8377H113.512V35.1776H112.832L112.82 34.3748ZM119.617 33.5663C119.617 33.2186 119.476 32.9393 119.195 32.7284C118.918 32.5174 118.498 32.3534 117.935 32.2362C117.373 32.1151 116.935 31.9784 116.623 31.826C116.314 31.6698 116.084 31.4803 115.931 31.2577C115.783 31.035 115.709 30.7655 115.709 30.4491C115.709 29.9491 115.918 29.537 116.336 29.2127C116.753 28.8846 117.289 28.7206 117.941 28.7206C118.648 28.7206 119.214 28.8963 119.64 29.2479C120.07 29.5956 120.285 30.0506 120.285 30.6131H119.582C119.582 30.242 119.425 29.9334 119.113 29.6873C118.804 29.4413 118.414 29.3182 117.941 29.3182C117.48 29.3182 117.109 29.4217 116.828 29.6288C116.55 29.8319 116.412 30.0975 116.412 30.4256C116.412 30.742 116.527 30.9881 116.757 31.1639C116.992 31.3358 117.416 31.494 118.029 31.6385C118.646 31.7831 119.107 31.9373 119.412 32.1014C119.72 32.2655 119.949 32.4627 120.097 32.6932C120.246 32.9237 120.32 33.203 120.32 33.5311C120.32 34.0663 120.103 34.494 119.669 34.8143C119.24 35.1346 118.677 35.2948 117.982 35.2948C117.244 35.2948 116.644 35.117 116.183 34.7616C115.726 34.4022 115.498 33.9491 115.498 33.4022H116.201C116.228 33.8123 116.4 34.1327 116.716 34.3631C117.037 34.5897 117.459 34.703 117.982 34.703C118.47 34.703 118.865 34.5956 119.166 34.3807C119.466 34.1659 119.617 33.8944 119.617 33.5663ZM125.159 30.8416H127.755V31.4979H125.159V34.3221H124.45V31.4979H121.907V30.8416H124.45V28.1112H125.159V30.8416Z" fill="black"/>
<g clip-path="url(#clip0_5439_851)">
<path d="M29.7654 42H12.2346C5.5082 42 0 36.4918 0 29.7654V12.2346C0 5.5082 5.5082 0 12.2346 0H29.7654C36.4918 0 42 5.5082 42 12.2346V29.7654C42 36.4918 36.4918 42 29.7654 42Z" fill="#355F8B"/>
<path d="M27.9382 32.8373H26.8789C26.4022 32.8373 26.005 32.4401 26.005 31.9634V30.9041C26.005 30.4275 26.4022 30.0302 26.8789 30.0302H27.9382C28.4148 30.0302 28.8121 30.4275 28.8121 30.9041V31.9634C28.8121 32.4401 28.4413 32.8373 27.9382 32.8373Z" fill="white"/>
<path d="M15.121 32.8373H14.0618C13.5851 32.8373 13.1879 32.4401 13.1879 31.9634V30.9041C13.1879 30.4275 13.5851 30.0302 14.0618 30.0302H15.121C15.5977 30.0302 15.9949 30.4275 15.9949 30.9041V31.9634C15.9684 32.4401 15.5977 32.8373 15.121 32.8373Z" fill="white"/>
<path d="M26.2433 25.8462H25.1841C24.7074 25.8462 24.3102 25.4489 24.3102 24.9723V23.913C24.3102 23.4363 24.7074 23.0391 25.1841 23.0391H26.2433C26.72 23.0391 27.1172 23.4363 27.1172 23.913V24.9723C27.1172 25.4489 26.72 25.8462 26.2433 25.8462Z" fill="white"/>
<path d="M16.7894 25.8462H15.7301C15.2534 25.8462 14.8562 25.4489 14.8562 24.9723V23.913C14.8562 23.4363 15.2534 23.0391 15.7301 23.0391H16.7894C17.266 23.0391 17.6633 23.4363 17.6633 23.913V24.9723C17.6633 25.4489 17.266 25.8462 16.7894 25.8462Z" fill="white"/>
<path d="M10.8045 16.4451H8.05043C7.60024 16.4451 7.25598 16.1008 7.25598 15.6507C7.25598 15.2005 7.60024 14.8562 8.05043 14.8562H10.778C11.2282 14.8562 11.5725 15.2005 11.5725 15.6507C11.599 16.0744 11.2282 16.4451 10.8045 16.4451Z" fill="white"/>
<path d="M33.9231 16.4451H31.1955C30.7453 16.4451 30.401 16.1008 30.401 15.6507C30.401 15.2005 30.7453 14.8562 31.1955 14.8562H33.9231C34.3733 14.8562 34.7175 15.2005 34.7175 15.6507C34.7175 16.0744 34.3733 16.4451 33.9231 16.4451Z" fill="white"/>
<path d="M28.8121 30.8247H13.1879C11.4401 30.8247 10.0101 29.3947 10.0101 27.6469V13.1349C10.0101 10.9369 11.7843 9.16266 13.9823 9.16266H28.0176C30.2156 9.16266 31.9899 10.9369 31.9899 13.1349V19.0933C31.9899 19.5435 31.6456 19.8878 31.1954 19.8878H11.599V27.6469C11.599 28.5208 12.314 29.2358 13.1879 29.2358H28.8121C29.686 29.2358 30.401 28.5208 30.401 27.6469V22.8272C30.401 22.377 30.7453 22.0328 31.1954 22.0328C31.6456 22.0328 31.9899 22.377 31.9899 22.8272V27.6469C31.9899 29.3947 30.5599 30.8247 28.8121 30.8247ZM11.599 18.2988H30.401V13.1349C30.401 11.8108 29.3417 10.7516 28.0176 10.7516H13.9823C12.6582 10.7516 11.599 11.8108 11.599 13.1349V18.2988Z" fill="white"/>
</g>
<defs>
<clipPath id="clip0_5439_851">
<rect width="42" height="42" fill="white"/>
</clipPath>
</defs>
</svg>
